#!OML:ASF E:/inclinewalkrobotboard/Project1/Captureday1/Session1/subject1.ASF
:FULLY-SPECIFIED
:DEGREES
301
root 0 0 0 -1.978953792947651 -6.1017412306343 -7.19533717412161
lowerback 8.792680601255011 2.9830836190537586 5.6209926299346815
upperback 0.13086367631070167 4.581778728710334 0.956655622301911
thorax -4.643616768543623 2.154435327389602 -2.724861688020057
lowerneck -12.945463904158375 -3.4831945162488442 -1.6893253661002334
upperneck 12.829951275149515 -4.942451156286531 3.5106864188796765
head 6.055784164966611 -2.2518532271711096 0.9515463989530673
rclavicle -3.2618393867937016E-15 -1.6122951430512612E-15
rhumerus -30.626928067947095 -17.293838109686167 -83.9160689818777
rradius 20.900371567373213
rwrist 13.949777810080128
rhand -19.00216981526999 30.79781495596214
rfingers 7.12502
rthumb 7.315232099876417 0.7484840102038461
lclavicle -4.3987193383066485E-15 -1.210097864476427E-15
lhumerus -35.02808474971239 8.219035117013417 79.58335708269779
lradius 16.54721251958633
lwrist -1.416886290926779
lhand -27.25375118522844 27.349510296314577
lfingers 7.125019999999989
lthumb -0.7113598271813037 57.428936365383365
rfemur -10.929597570775783 5.407980447689358 28.39619505106213
rtibia 40.10558749989862
rfoot -9.154014798678823 -6.216408111658549
rtoes 5.210568832581652
lfemur -18.55693030592969 -0.012569390067096453 -17.34100549074428
ltibia 37.52434272338196
lfoot -2.1783644418836072 -4.451626283576347
ltoes -2.862987819620969
302
root 0 0 0 -2.011873671025481 -6.093700684539094 -7.13904879827752
lowerback 8.871551683196143 2.976106160343718 5.564245992750049
upperback 0.18757336145111564 4.567130508870327 0.9594114439416537
thorax -4.626617451563148 2.148933172694613 -2.6877713574896407
lowerneck -12.887350548881926 -3.4992781875732137 -1.7022050898498828
upperneck 12.900707831591017 -4.961390773043683 3.5284482973712494
head 6.069548498754715 -2.260907307260227 0.9570997995331951
rclavicle -3.1780323673896203E-15 -1.6272103163427448E-15
rhumerus -30.562455068178494 -17.37092050421522 -83.82010792508905
rradius 20.98843594983981
rwrist 13.835985215653142
rhand -19.025789229714725 30.7965775730871
rfingers 7.12502
rthumb 7.292171028208506 0.7446396511383924
lclavicle -4.323199588769637E-15 -1.2335593855836295E-15
lhumerus -35.004077589358104 8.154285206262111 79.57055987652284
lradius 16.644844359835343
lwrist -1.3299499676096844
lhand -27.277957019975922 27.387429467690385
lfingers 7.125019999999989
lthumb -0.7342934395209051 57.46913405755839
rfemur -11.254202294925626 5.3492041900375025 28.276799122195
rtibia 40.37368687069255
rfoot -8.995555141069433 -6.2544880027824625
rtoes 5.230837563781052
lfemur -18.203982715876798 -0.1814181899051941 -17.499133288599896
ltibia 37.18543719383664
lfoot -2.3949345486066704 -4.329118424875686
ltoes -2.650560608420683
303
root 0 0 0 -2.0469168977601813 -6.087867242495886 -7.0806876933623055
lowerback 8.954922574793477 2.964599069620161 5.512107720481527
upperback 0.2530571122442182 4.546781459956375 0.9642243569482705
thorax -4.602544241238479 2.1404153869879083 -2.6503258808255605
lowerneck -12.840221860949327 -3.510634938179343 -1.7160557349838432
upperneck 12.978407189244773 -4.971702256242179 3.534943903927174
head 6.085473153622308 -2.2665743558956923 0.9595317524163922
rclavicle -3.109819265011717E-15 -1.6436711059917784E-15
rhumerus -30.47999014633483 -17.451727764446467 -83.7236445952031
rradius 21.127661392398757
rwrist 13.77610648451087
rhand -19.068587369002394 30.80235570429179
rfingers 7.125020000000001
rthumb 7.250812785883384 0.7455334823418838
lclavicle -4.264556801537335E-15 -1.2619607547035208E-15
lhumerus -34.97821025504378 8.090459355324352 79.56031300745954
lradius 16.73817270310727
lwrist -1.246035369264098
lhand -27.30162343071556 27.42506558711925
lfingers 7.1250199999999895
lthumb -0.7567691320005956 57.508861956939924
rfemur -11.562161784803184 5.294948738924528 28.158281636680965
rtibia 40.59828405505709
rfoot -8.854391227710769 -6.293391807129658
rtoes 5.237444835144865
lfemur -17.827115060327742 -0.37418516526674894 -17.662152922879702
ltibia 36.811218424578726
lfoot -2.63771311782787 -4.183420755967498
ltoes -2.4366066079592663
304
root 0 0 0 -2.0869270935572515 -6.083818737903758 -7.016441689557295
lowerback 9.044411788245101 2.947730431715567 5.461276025674316
upperback 0.3295712130139671 4.519282414502101 0.9711126024108092
thorax -4.569851043493274 2.1282526555211634 -2.6103645063570444
lowerneck -12.8039371857273 -3.5177500651724523 -1.7319706727557944
upperneck 13.067957935885262 -4.973909787680055 3.530690765566598
head 6.104958961448229 -2.2690781471309145 0.9590554594285432
rclavicle -3.0517198412633002E-15 -1.6668311014753792E-15
rhumerus -30.381746466311313 -17.543106575773134 -83.62563825726014
rradius 21.30888347767995
rwrist 13.76867683889412
rhand -19.128919588420807 30.81265828427513
rfingers 7.125020000000002
rthumb 7.192739038278858 0.7489077688359416
lclavicle -4.2181833227726856E-15 -1.2978072554608342E-15
lhumerus -34.95035971735635 8.026734233694063 79.55082097781232
lradius 16.829551121603874
lwrist -1.1629319182418425
lhand -27.325756514957092 27.463486075287456
lfingers 7.12501999999999
lthumb -0.7797492350158528 57.549344224836986
rfemur -11.864937075588271 5.240887947835754 28.03118676735047
rtibia 40.79303690701944
rfoot -8.718157102087877 -6.332295422033763
rtoes 5.2335358580733775
lfemur -17.40238636395997 -0.5980048507945002 -17.839825401568923
ltibia 36.38859962511204
lfoot -2.9166751655520677 -4.011769946236615
ltoes -2.2097804288457716
305
root 0 0 0 -2.13671433543502 -6.081285747027676 -6.940760147072314
lowerback 9.142691453493306 2.923600470958246 5.4074684982105925
upperback 0.4215050463208059 4.48169591369649 0.9807322641921827
thorax -4.5252679506712274 2.1110985078152567 -2.5642548250916675
lowerneck -12.77951214029002 -3.520654699960901 -1.7513698788345384
upperneck 13.181176402503414 -4.967635249656761 3.5146732568454455
head 6.131671090842834 -2.268256826408475 0.9553908275624876
rclavicle -3.00010318320527E-15 -1.6997961786344104E-15
rhumerus -30.272451495860714 -17.651730543425593 -83.52659123658256
rradius 21.522508247468714
rwrist 13.812240207671366
rhand -19.205525296745634 30.823993873902644
rfingers 7.125020000000002
rthumb 7.119165635874563 0.7514465238725876
lclavicle -4.180834906644337E-15 -1.3435202594615694E-15
lhumerus -34.919596327278214 7.961128259191007 79.54155177560023
lradius 16.921946447417003
lwrist -1.0778680632191442
lhand -27.35126818340613 27.50406256502656
lfingers 7.125019999999991
lthumb -0.8041013948093187 57.592048177195636
rfemur -12.179095372065852 5.182592337043722 27.887683551470882
rtibia 40.97912646202035
rfoot -8.57367316201507 -6.371566997954301
rtoes 5.223702155199582
lfemur -16.900715121174258 -0.8624442877112619 -18.04248736999168
ltibia 35.90157238506009
lfoot -3.245568224051553 -3.8090194532277954
ltoes -1.9614675107457415
